# xmcd
#
# Track frame offsets:
# 182
# 14857
# 26565
# 41795
# 65500
# 87625
# 113185
# 126792
# 144515
# 159337
# 186845
# 205237
# 233297
# 260695
# 277542
# 296097
#
# Disc length: 4153 seconds
#
#
# Revision: 3
# Processed by: cddbd v1.5.2PL0 Copyright (c) Steve Scherf et al.
# Submitted via: FreeRIP 2.96 
#
DISCID=e8103710
DTITLE=Various Artist - Solitude
DYEAR=1995
DGENRE=Jazz
TTITLE0=Billie Holiday - Solitude
TTITLE1=Mile Davis - 'Round Midnight
TTITLE2=Duke Ellington - On A Turquoise Cloud
TTITLE3=Paul Desmons - Nuages
TTITLE4=Ella Fitzgerald - Good Morning Heartache
TTITLE5=Stan Getz and Jimmie Rowles - The Peacocks
TTITLE6=Carmen McRae - Cloudy Morning
TTITLE7=The Sax Section - Blue For The High Brow
TTITLE8=Sarah Vaughan - Summertime
TTITLE9=Mile Davis - Summer Night
TTITLE10=Stan Getz and Jimmie Rowles - I'll Never Be The Same
TTITLE11=Bill Evans - The Two Lonely People
TTITLE12=Chet Baker - Fair Weather
TTITLE13=Barry Galbraith - He Was Too Good To Me
TTITLE14=Gerry Mulligan Quartet - My Funny Valentine
TTITLE15=Billie Holiday - I'm Fool To Want You
EXTD=YEAR: 1995
EXTT0=
EXTT1=
EXTT2=
EXTT3=
EXTT4=
EXTT5=
EXTT6=
EXTT7=
EXTT8=
EXTT9=
EXTT10=
EXTT11=
EXTT12=
EXTT13=
EXTT14=
EXTT15=
PLAYORDER=
